{
	"asset":{
		"generator":"Khronos glTF Blender I/O v4.0.44",
		"version":"2.0"
	},
	"scene":0,
	"scenes":[
		{
			"name":"Scene",
			"nodes":[
				3
			]
		}
	],
	"nodes":[
		{
			"mesh":0,
			"name":"Geometry",
			"translation":[
				0,
				7.110834121704102e-05,
				0.4499450623989105
			]
		},
		{
			"children":[
				0
			],
			"name":"Scene"
		},
		{
			"children":[
				1
			],
			"name":"Scenes"
		},
		{
			"children":[
				2
			],
			"name":"Root",
			"rotation":[
				0.7071068286895752,
				0,
				0,
				0.7071068286895752
			]
		}
	],
	"materials":[
		{
			"doubleSided":true,
			"name":"Material_20",
			"pbrMetallicRoughness":{
				"metallicRoughnessTexture":{
					"index":0
				}
			}
		}
	],
	"meshes":[
		{
			"name":"Geometry",
			"primitives":[
				{
					"attributes":{
						"POSITION":0,
						"NORMAL":1,
						"TEXCOORD_0":2,
						"TEXCOORD_1":3
					},
					"indices":4,
					"material":0
				}
			]
		}
	],
	"textures":[
		{
			"sampler":0,
			"source":0
		}
	],
	"images":[
		{
			"mimeType":"image/png",
			"name":"Texture_12_false.png",
			"uri":"../../var/folders/q_/4jn4bv7x61b7bg06jnwdsp3c0000gn/T/blender_XXBDOH/usd_textures_tmp/Texture_12_false.png"
		}
	],
	"accessors":[
		{
			"bufferView":0,
			"componentType":5126,
			"count":41476,
			"max":[
				0.5900303721427917,
				0.5712236166000366,
				0
			],
			"min":[
				-0.5900303721427917,
				-0.5713657736778259,
				-0.899890124797821
			],
			"type":"VEC3"
		},
		{
			"bufferView":1,
			"componentType":5126,
			"count":41476,
			"type":"VEC3"
		},
		{
			"bufferView":2,
			"componentType":5126,
			"count":41476,
			"type":"VEC2"
		},
		{
			"bufferView":3,
			"componentType":5126,
			"count":41476,
			"type":"VEC2"
		},
		{
			"bufferView":4,
			"componentType":5123,
			"count":86586,
			"type":"SCALAR"
		}
	],
	"bufferViews":[
		{
			"buffer":0,
			"byteLength":497712,
			"byteOffset":0,
			"target":34962
		},
		{
			"buffer":0,
			"byteLength":497712,
			"byteOffset":497712,
			"target":34962
		},
		{
			"buffer":0,
			"byteLength":331808,
			"byteOffset":995424,
			"target":34962
		},
		{
			"buffer":0,
			"byteLength":331808,
			"byteOffset":1327232,
			"target":34962
		},
		{
			"buffer":0,
			"byteLength":173172,
			"byteOffset":1659040,
			"target":34963
		}
	],
	"samplers":[
		{
			"magFilter":9729,
			"minFilter":9987
		}
	],
	"buffers":[
		{
			"byteLength":1832212,
			"uri":"model.bin"
		}
	]
}
